<svg width="603" height="259" viewBox="0 0 603 259" fill="none" xmlns="http://www.w3.org/2000/svg">
<path fill-rule="evenodd" clip-rule="evenodd" d="M58.4766 105.086C37.7372 113.562 23.4657 128.22 20.7291 142.612C20.288 144.931 20.4211 146.607 20.8892 148.021C21.364 149.456 22.2521 150.832 23.6859 152.501C24.7224 153.708 26.889 155.061 29.1826 156.215C30.2635 156.758 31.2639 157.204 31.994 157.514C32.3577 157.668 32.6509 157.787 32.8492 157.866C32.9483 157.906 33.0235 157.935 33.0717 157.954L33.1233 157.974L33.1319 157.977C34.7548 158.591 35.5641 160.22 34.9388 161.616C34.3134 163.012 32.4903 163.647 30.867 163.034L31.9837 160.541C30.867 163.034 30.8675 163.035 30.867 163.034L30.8649 163.034L30.8621 163.032L30.8544 163.03L30.8305 163.02L30.7498 162.989C30.6818 162.963 30.5857 162.925 30.4648 162.877C30.2231 162.781 29.881 162.642 29.4639 162.465C28.6324 162.112 27.4889 161.603 26.2407 160.975C23.8761 159.786 20.6436 157.935 18.7166 155.692C17.0324 153.731 15.6305 151.707 14.8448 149.333C14.0524 146.94 13.9546 144.401 14.5135 141.462C17.6729 124.847 33.6946 109.014 55.6025 100.06C60.2525 98.1596 66.3609 96.6914 71.1686 95.7091C73.6001 95.2123 75.7521 94.8293 77.2977 94.5702C78.0711 94.4406 78.6943 94.3417 79.1265 94.2749C79.3427 94.2415 79.5113 94.2161 79.6271 94.1988L79.7608 94.1791L79.7968 94.1738L79.81 94.1719C79.8104 94.1719 79.8117 94.1717 80.4597 96.8975L79.8117 94.1717L79.8842 94.1613L79.9574 94.1539C86.8142 93.4601 93.2734 93.2214 99.797 94.1909C101.669 94.469 103.798 95.1455 105.66 95.9815C107.45 96.7846 109.451 97.9383 110.69 99.3806C111.76 100.625 111.514 102.349 110.142 103.23C108.77 104.111 106.79 103.817 105.721 102.572C105.4 102.198 104.478 101.539 102.997 100.874C101.589 100.242 100.101 99.7955 99.0237 99.6354C93.3795 98.7966 87.6176 98.9709 81.0393 99.6333L80.9577 99.6454C80.8538 99.6609 80.6978 99.6844 80.4948 99.7158C80.0886 99.7785 79.4945 99.8728 78.7528 99.9971C77.268 100.246 75.1982 100.614 72.8634 101.091C68.1386 102.057 62.5369 103.426 58.4766 105.086Z" fill="#FF1493"/>
<path fill-rule="evenodd" clip-rule="evenodd" d="M34.5186 159.132C35.4977 160.453 35.2448 162.334 33.9537 163.335C31.7399 165.052 29.7536 168.577 28.6101 173.217C27.4863 177.776 27.2975 182.95 28.2487 187.483C29.2052 192.04 31.2252 195.592 34.196 197.511C37.0807 199.375 41.4864 200.097 48.1307 197.679C49.6573 197.124 51.3353 197.939 51.8787 199.5C52.4221 201.061 51.625 202.776 50.0984 203.332C42.317 206.164 35.9104 205.716 31.0617 202.584C26.2991 199.507 23.6646 194.237 22.5113 188.742C21.3527 183.221 21.5987 177.111 22.9199 171.75C24.2215 166.47 26.6904 161.437 30.4079 158.555C31.6991 157.554 33.5395 157.812 34.5186 159.132Z" fill="#FF1493"/>
<path fill-rule="evenodd" clip-rule="evenodd" d="M97.5316 204.821C97.6312 203.168 99.023 201.91 100.64 202.011C107.263 202.428 111.602 204.699 114.411 208.37C117.054 211.825 118.036 216.184 118.837 219.845C118.864 219.967 118.89 220.088 118.916 220.208C119.738 223.97 120.42 227.091 121.982 229.599C123.439 231.939 125.803 233.929 130.611 234.752C135.455 235.582 140.996 234.59 146.766 232.405C152.508 230.231 158.252 226.962 163.397 223.52C168.532 220.085 173.001 216.526 176.189 213.821C177.781 212.471 179.048 211.338 179.914 210.546C180.346 210.151 180.678 209.841 180.9 209.632C181.01 209.527 181.093 209.448 181.148 209.396L181.207 209.339L181.223 209.324C182.398 208.184 184.255 208.234 185.371 209.435C186.486 210.637 186.437 212.536 185.262 213.676L183.292 211.554C185.262 213.676 185.261 213.677 185.261 213.678L185.253 213.685L185.232 213.705L185.158 213.776C185.094 213.838 185 213.927 184.879 214.041C184.637 214.27 184.282 214.601 183.826 215.018C182.913 215.853 181.591 217.035 179.936 218.439C176.631 221.242 171.981 224.948 166.61 228.541C161.25 232.127 155.101 235.648 148.804 238.032C142.535 240.406 135.89 241.74 129.642 240.67C123.358 239.594 119.468 236.734 117.032 232.821C114.897 229.392 114.011 225.305 113.263 221.855C113.211 221.618 113.161 221.385 113.11 221.155C112.268 217.304 111.492 214.293 109.789 212.068C108.253 210.059 105.656 208.339 100.28 208C98.6624 207.898 97.432 206.475 97.5316 204.821Z" fill="#FF1493"/>
<path fill-rule="evenodd" clip-rule="evenodd" d="M55.4844 185.415C56.8819 186.25 57.3543 188.084 56.5412 189.513C56.5412 189.513 56.5412 189.513 56.5412 189.513C56.5409 189.514 56.5404 189.515 56.5397 189.516L56.5214 189.549C56.5028 189.583 56.4719 189.64 56.4303 189.719C56.3471 189.877 56.2214 190.122 56.0666 190.446C55.7566 191.095 55.333 192.051 54.9008 193.241C54.0303 195.639 53.158 198.896 53.0544 202.455C52.9515 205.991 53.6066 209.768 55.7294 213.342C57.8472 216.908 61.5622 220.502 67.9589 223.453C81.0059 229.471 92.5121 229.074 100.231 225.917C108.198 222.659 111.302 217.054 110.315 212.68C109.951 211.066 110.935 209.455 112.514 209.082C114.093 208.71 115.668 209.717 116.033 211.331C117.98 219.958 111.549 227.751 102.41 231.488C93.0221 235.327 79.8505 235.521 65.5459 228.922C58.2668 225.564 53.5504 221.232 50.7138 216.456C47.8822 211.688 47.0599 206.708 47.189 202.276C47.3174 197.866 48.3866 193.943 49.3996 191.153C49.9091 189.75 50.4127 188.61 50.7945 187.812C50.9856 187.412 51.147 187.096 51.2643 186.873C51.323 186.762 51.3707 186.673 51.4058 186.61C51.4233 186.578 51.4377 186.552 51.4486 186.532L51.4625 186.508L51.4675 186.499L51.4695 186.496C51.4703 186.494 51.4711 186.493 53.9845 187.994L51.4711 186.493C52.2884 185.062 54.0852 184.58 55.4844 185.415Z" fill="#FF1493"/>
<path fill-rule="evenodd" clip-rule="evenodd" d="M236.767 166.526C235.31 165.801 234.842 164.085 235.721 162.693C238.901 157.658 242.009 152.236 243.154 146.569C244.269 141.051 243.539 135.211 238.766 129.196C236.769 126.68 235.155 124.138 233.692 121.708C233.241 120.958 232.81 120.229 232.388 119.516C231.416 117.872 230.494 116.312 229.491 114.78C226.685 110.493 223.521 106.871 218.185 104.216C214.959 102.611 209.556 101.777 203.349 101.837C197.223 101.897 190.77 102.823 185.701 104.386C183.819 104.966 181.309 105.89 179.218 106.691C178.183 107.088 177.271 107.447 176.618 107.706C176.292 107.836 176.03 107.94 175.852 108.012L175.648 108.095L175.596 108.116L175.581 108.122L175.529 108.143L175.477 108.162L175.256 108.244C175.114 108.297 174.913 108.372 174.674 108.461C174.195 108.64 173.569 108.874 172.972 109.102C172.47 109.294 172.012 109.471 171.684 109.602C171.382 109.791 171.043 109.935 170.675 110.024C170.612 110.04 170.491 110.068 170.347 110.091C170.277 110.102 170.144 110.122 169.977 110.131L169.97 110.131C169.87 110.137 169.42 110.162 168.897 110.012C168.615 109.932 168.04 109.725 167.558 109.192C166.99 108.565 166.803 107.765 166.93 107.022C167.036 106.396 167.337 105.955 167.488 105.756C167.657 105.533 167.824 105.377 167.92 105.292C168.221 105.026 168.52 104.866 168.561 104.845L168.565 104.842C168.816 104.705 169.129 104.576 169.275 104.516L169.284 104.512C169.704 104.339 170.322 104.1 170.929 103.869C171.546 103.633 172.189 103.392 172.675 103.211C172.919 103.12 173.124 103.044 173.269 102.99L173.448 102.923L173.474 102.913L173.69 102.826C173.878 102.75 174.148 102.642 174.485 102.508C175.158 102.241 176.097 101.871 177.163 101.463C179.274 100.654 181.966 99.6589 184.082 99.0066C189.884 97.2181 197.005 96.2195 203.67 96.1545C210.253 96.0903 216.858 96.9315 221.369 99.1761C227.929 102.44 231.736 106.912 234.82 111.625C235.891 113.26 236.908 114.98 237.907 116.669C238.315 117.36 238.72 118.045 239.125 118.717C240.547 121.081 242.028 123.401 243.818 125.656C249.611 132.956 250.607 140.352 249.21 147.268C247.843 154.035 244.201 160.245 240.997 165.318C240.118 166.71 238.224 167.251 236.767 166.526Z" fill="#FF1493"/>
<path fill-rule="evenodd" clip-rule="evenodd" d="M106.448 101.375C108.029 101.736 109.696 100.745 110.169 99.1605C110.33 98.6225 111.133 97.317 113.043 95.442C114.841 93.6777 117.309 91.7107 120.228 89.8368C126.105 86.0634 133.449 82.8939 140.368 82.3194C154.739 81.1264 172.828 84.2699 178.512 102.033C178.997 103.551 180.67 104.31 182.248 103.73C183.826 103.149 184.711 101.448 184.225 99.93C177.293 78.2657 155.282 75.2081 140.263 76.4551C131.986 77.1423 123.629 80.8443 117.202 84.9708C113.969 87.0469 111.135 89.287 108.967 91.4142C106.912 93.4307 105.086 95.7012 104.443 97.8509C103.969 99.4353 104.867 101.013 106.448 101.375Z" fill="#FF1493"/>
<path fill-rule="evenodd" clip-rule="evenodd" d="M175.933 205.933C176.75 204.466 178.544 203.906 179.94 204.683C184.567 207.257 189.529 212.404 194.447 217.982C196.357 220.147 198.266 222.386 200.186 224.637C203.374 228.374 206.591 232.145 209.883 235.671C215.15 241.311 220.194 245.846 224.852 248.058C227.144 249.147 229.188 249.597 231.015 249.456C232.789 249.32 234.568 248.614 236.389 247.009C237.642 245.904 239.487 246.014 240.511 247.253C241.534 248.492 241.348 250.392 240.095 251.496C237.349 253.916 234.353 255.208 231.203 255.45C228.106 255.688 225.077 254.896 222.206 253.532C216.537 250.839 210.89 245.621 205.571 239.925C202.215 236.331 198.823 232.357 195.562 228.535C193.662 226.309 191.806 224.134 190.028 222.118C185.035 216.455 180.657 212.04 176.98 209.995C175.584 209.218 175.115 207.399 175.933 205.933Z" fill="#FF1493"/>
<path fill-rule="evenodd" clip-rule="evenodd" d="M238.868 160.99C239.501 159.465 241.224 158.754 242.715 159.402C248.316 161.836 252.663 167.419 255.28 173.292C257.897 179.165 259.11 186.051 257.677 191.59C256.853 194.775 254.59 197.58 252.447 199.893C251.471 200.946 250.427 201.99 249.436 202.983C249.302 203.117 249.169 203.25 249.038 203.382C247.909 204.514 246.862 205.577 245.946 206.618C245.368 207.275 244.754 208.603 243.837 210.875C243.76 211.068 243.68 211.266 243.599 211.468C242.818 213.414 241.877 215.76 240.644 217.902C239.271 220.288 237.387 222.698 234.623 224.216C231.81 225.76 228.426 226.196 224.416 225.268C225.246 227.015 226.336 229.01 227.902 231.31C229.715 233.973 232.561 237.096 235.195 239.986C235.769 240.616 236.333 241.234 236.874 241.835C238.282 243.398 239.662 244.977 240.421 246.184C240.622 246.503 240.844 246.896 241.011 247.329C241.151 247.69 241.413 248.475 241.243 249.417C241.018 250.666 240.165 251.558 239.15 251.935C238.368 252.226 237.635 252.166 237.234 252.111C235.628 251.893 234.499 250.384 234.713 248.742C234.726 248.643 234.743 248.546 234.765 248.45C234.235 247.791 233.494 246.939 232.558 245.9C232.081 245.371 231.564 244.804 231.022 244.21C228.391 241.327 225.165 237.792 223.086 234.738C220.589 231.07 219.142 228.046 218.104 225.568C217.714 224.638 217.409 223.863 217.146 223.196C216.656 221.952 216.312 221.08 215.84 220.265C215.818 220.227 215.797 220.19 215.775 220.154C215.678 219.986 215.594 219.84 215.534 219.734C215.5 219.675 215.448 219.582 215.4 219.486C215.379 219.445 215.327 219.341 215.275 219.21C215.25 219.148 215.199 219.015 215.154 218.843L215.151 218.834C215.125 218.734 214.993 218.24 215.085 217.616C215.138 217.253 215.302 216.6 215.847 216.005C216.448 215.35 217.206 215.096 217.828 215.061C218.743 215.009 219.396 215.419 219.485 215.474C219.488 215.476 219.49 215.478 219.492 215.479C219.797 215.664 220.008 215.874 220.033 215.9C220.034 215.901 220.035 215.901 220.036 215.902C220.139 216.003 220.228 216.104 220.256 216.136L220.26 216.14C220.295 216.181 220.337 216.228 220.371 216.268L220.384 216.283C220.425 216.33 220.466 216.379 220.512 216.43C220.914 216.89 221.445 217.431 221.937 217.721C223.049 218.378 224.822 219.206 225.641 219.399C228.55 220.087 230.47 219.686 231.847 218.93C233.294 218.135 234.497 216.752 235.587 214.859C236.595 213.107 237.379 211.159 238.186 209.151C238.261 208.964 238.337 208.776 238.413 208.587C239.212 206.605 240.19 204.189 241.583 202.606C242.637 201.408 243.805 200.225 244.929 199.098C245.064 198.962 245.199 198.828 245.333 198.694C246.333 197.692 247.292 196.732 248.187 195.766C250.288 193.499 251.592 191.648 252.004 190.056C252.972 186.314 252.223 180.901 249.94 175.78C247.658 170.659 244.168 166.553 240.42 164.925C238.929 164.277 238.234 162.515 238.868 160.99ZM215.884 220.138C215.884 220.138 215.887 220.141 215.893 220.149C215.888 220.142 215.884 220.139 215.884 220.138Z" fill="#FF1493"/>
<path d="M315.408 185.152C307.088 185.152 300.272 182.272 294.96 176.512C289.648 170.752 286.992 162.752 286.992 152.512C286.992 142.4 289.712 134.432 295.152 128.608C300.592 122.784 307.504 119.872 315.888 119.872C320.24 119.872 323.888 120.704 326.832 122.368C329.84 123.968 332.24 125.728 334.032 127.648L329.616 132.832C328.016 131.232 326.128 129.856 323.952 128.704C321.84 127.488 319.216 126.88 316.08 126.88C309.744 126.88 304.688 129.184 300.912 133.792C297.136 138.336 295.248 144.512 295.248 152.32C295.248 160.256 297.04 166.56 300.624 171.232C304.272 175.84 309.456 178.144 316.176 178.144C321.04 178.144 324.816 176.896 327.504 174.4V157.984H314.16V151.36H334.8V177.856C332.752 179.968 330.064 181.728 326.736 183.136C323.408 184.48 319.632 185.152 315.408 185.152ZM368.034 185.152C361.826 185.152 356.546 183.008 352.194 178.72C347.842 174.368 345.666 168.384 345.666 160.768C345.666 155.648 346.658 151.264 348.642 147.616C350.69 143.968 353.282 141.152 356.418 139.168C359.618 137.184 363.01 136.192 366.594 136.192C372.546 136.192 377.122 138.176 380.322 142.144C383.586 146.112 385.218 151.424 385.218 158.08C385.218 159.936 385.122 161.44 384.93 162.592H353.442C353.762 167.52 355.298 171.456 358.05 174.4C360.866 177.344 364.514 178.816 368.994 178.816C371.234 178.816 373.282 178.496 375.138 177.856C377.058 177.152 378.882 176.256 380.61 175.168L383.394 180.352C381.41 181.632 379.138 182.752 376.578 183.712C374.018 184.672 371.17 185.152 368.034 185.152ZM353.346 156.928H378.306C378.306 147.264 374.466 142.432 366.786 142.432C363.522 142.432 360.578 143.712 357.954 146.272C355.394 148.768 353.858 152.32 353.346 156.928ZM396.747 184V137.344H403.275L403.947 144.064H404.235C406.411 141.888 408.747 140.032 411.243 138.496C413.803 136.96 416.683 136.192 419.883 136.192C429.355 136.192 434.091 142.272 434.091 154.432V184H426.219V155.488C426.219 151.136 425.515 147.968 424.107 145.984C422.699 144 420.459 143.008 417.387 143.008C415.019 143.008 412.875 143.616 410.955 144.832C409.099 146.048 406.987 147.84 404.619 150.208V184H396.747ZM457.599 185.152C452.031 185.152 449.247 181.632 449.247 174.592V115.648H457.119V175.168C457.119 177.472 457.855 178.624 459.327 178.624C459.903 178.624 460.479 178.56 461.055 178.432L462.111 184.384C460.959 184.896 459.455 185.152 457.599 185.152ZM492.628 185.152C486.42 185.152 481.14 183.008 476.788 178.72C472.436 174.368 470.26 168.384 470.26 160.768C470.26 155.648 471.252 151.264 473.236 147.616C475.284 143.968 477.876 141.152 481.012 139.168C484.212 137.184 487.604 136.192 491.188 136.192C497.14 136.192 501.716 138.176 504.916 142.144C508.18 146.112 509.812 151.424 509.812 158.08C509.812 159.936 509.716 161.44 509.524 162.592H478.036C478.356 167.52 479.892 171.456 482.644 174.4C485.46 177.344 489.108 178.816 493.588 178.816C495.828 178.816 497.876 178.496 499.732 177.856C501.652 177.152 503.476 176.256 505.204 175.168L507.988 180.352C506.004 181.632 503.732 182.752 501.172 183.712C498.612 184.672 495.764 185.152 492.628 185.152ZM477.94 156.928H502.9C502.9 147.264 499.06 142.432 491.38 142.432C488.116 142.432 485.172 143.712 482.548 146.272C479.988 148.768 478.452 152.32 477.94 156.928ZM521.341 184V137.344H527.869L528.541 144.064H528.829C531.005 141.888 533.341 140.032 535.837 138.496C538.397 136.96 541.277 136.192 544.477 136.192C553.949 136.192 558.685 142.272 558.685 154.432V184H550.813V155.488C550.813 151.136 550.109 147.968 548.701 145.984C547.293 144 545.053 143.008 541.981 143.008C539.613 143.008 537.469 143.616 535.549 144.832C533.693 146.048 531.581 147.84 529.213 150.208V184H521.341ZM588.529 185.152C583.537 185.152 580.049 183.712 578.065 180.832C576.145 177.952 575.185 174.208 575.185 169.6V143.776H568.273V137.824L575.569 137.344L576.529 124.288H583.153V137.344H595.729V143.776H583.153V169.696C583.153 172.576 583.665 174.816 584.689 176.416C585.777 177.952 587.665 178.72 590.353 178.72C591.185 178.72 592.081 178.592 593.041 178.336C594.001 178.016 594.865 177.728 595.633 177.472L597.169 183.424C595.889 183.872 594.481 184.256 592.945 184.576C591.473 184.96 590.001 185.152 588.529 185.152Z" fill="#FF1493"/>
<path d="M89.9767 169.491C93.8024 169.491 97.6281 169.491 101.454 169.491C107.191 169.491 112.68 170.862 118.36 171.41C130.286 172.56 141.803 173.944 153.57 170.879C165.732 167.711 177.381 161.458 186.983 153.246C192.577 148.462 197.812 143.129 203.87 139" stroke="#FF1493" stroke-width="4" stroke-linecap="round"/>
<path d="M199.262 22.0004L172.448 89.0116M143.767 1.00008L143.767 77.3713" stroke="#FF1493" stroke-width="4"/>
<path d="M91.6659 31L119.458 89.0473" stroke="#FF1493" stroke-width="4"/>
</svg>
