<svg width="256" height="257" viewBox="0 0 256 257" fill="none" xmlns="http://www.w3.org/2000/svg">
<path fill-rule="evenodd" clip-rule="evenodd" d="M54.7763 106.508C35.3493 114.802 21.9808 129.143 19.4174 143.223C19.0042 145.493 19.1289 147.133 19.5674 148.516C20.0121 149.919 20.844 151.266 22.1871 152.899C23.158 154.079 25.1875 155.404 27.336 156.532C28.3485 157.064 29.2856 157.5 29.9695 157.804C30.3102 157.955 30.5848 158.071 30.7706 158.148C30.8634 158.187 30.9338 158.216 30.979 158.234L31.0273 158.253L31.0354 158.257C32.5556 158.857 33.3137 160.451 32.7279 161.817C32.1421 163.183 30.4344 163.804 28.9138 163.205L29.9598 160.765C28.9138 163.205 28.9142 163.205 28.9138 163.205L28.9119 163.204L28.9092 163.203L28.902 163.2L28.8796 163.191L28.804 163.161C28.7403 163.135 28.6503 163.098 28.5371 163.051C28.3107 162.957 27.9902 162.821 27.5995 162.647C26.8206 162.302 25.7494 161.804 24.5802 161.19C22.3653 160.026 19.3373 158.216 17.5323 156.021C15.9546 154.103 14.6414 152.122 13.9055 149.8C13.1632 147.458 13.0715 144.974 13.5951 142.098C16.5546 125.842 31.5625 110.352 52.084 101.592C56.4399 99.7321 62.1617 98.2956 66.6652 97.3345C68.9428 96.8485 70.9586 96.4738 72.4064 96.2203C73.1309 96.0935 73.7146 95.9968 74.1195 95.9314C74.322 95.8987 74.4799 95.8739 74.5885 95.857L74.7137 95.8377L74.7474 95.8325L74.7598 95.8307C74.7601 95.8306 74.7614 95.8304 75.3684 98.4973L74.7614 95.8304L74.8293 95.8202L74.8978 95.813C81.3208 95.1342 87.3712 94.9007 93.482 95.8492C95.2351 96.1213 97.2296 96.7832 98.9743 97.6011C100.651 98.3868 102.526 99.5156 103.686 100.927C104.688 102.145 104.458 103.831 103.172 104.693C101.887 105.555 100.033 105.267 99.0313 104.049C98.7304 103.683 97.867 103.039 96.4796 102.388C95.1608 101.77 93.7665 101.333 92.7577 101.176C87.4706 100.355 82.0733 100.526 75.9113 101.174L75.8348 101.186C75.7375 101.201 75.5914 101.224 75.4012 101.255C75.0207 101.316 74.4642 101.408 73.7694 101.53C72.3786 101.773 70.4398 102.134 68.2527 102.601C63.8269 103.545 58.5797 104.885 54.7763 106.508Z" fill="#FF1493"/>
<path fill-rule="evenodd" clip-rule="evenodd" d="M32.3343 159.387C33.2515 160.679 33.0146 162.52 31.8052 163.499C29.7315 165.179 27.8708 168.627 26.7997 173.167C25.747 177.628 25.5701 182.69 26.4612 187.125C27.3572 191.584 29.2494 195.059 32.0322 196.936C34.7343 198.76 38.8612 199.467 45.0851 197.101C46.5151 196.557 48.0869 197.355 48.5959 198.882C49.1049 200.409 48.3583 202.088 46.9283 202.631C39.6393 205.402 33.6381 204.964 29.0962 201.899C24.6349 198.889 22.1672 193.733 21.0868 188.356C20.0015 182.955 20.2319 176.977 21.4696 171.732C22.6888 166.566 25.0015 161.642 28.4838 158.822C29.6932 157.842 31.4172 158.095 32.3343 159.387Z" fill="#FF1493"/>
<path fill-rule="evenodd" clip-rule="evenodd" d="M91.36 204.088C91.4533 202.47 92.757 201.24 94.2721 201.339C100.476 201.747 104.54 203.968 107.171 207.561C109.647 210.941 110.567 215.205 111.317 218.787C111.342 218.906 111.367 219.025 111.391 219.142C112.162 222.823 112.8 225.876 114.263 228.331C115.628 230.62 117.842 232.567 122.347 233.372C126.884 234.184 132.074 233.214 137.479 231.076C142.858 228.949 148.238 225.751 153.058 222.383C157.868 219.022 162.054 215.54 165.04 212.894C166.531 211.572 167.718 210.464 168.529 209.69C168.934 209.303 169.245 208.999 169.453 208.795C169.556 208.693 169.634 208.615 169.685 208.564L169.741 208.508L169.755 208.494C170.856 207.378 172.596 207.427 173.641 208.603C174.685 209.778 174.64 211.636 173.539 212.752L171.693 210.675C173.539 212.752 173.538 212.753 173.538 212.753L173.53 212.761L173.511 212.78L173.441 212.85C173.381 212.91 173.294 212.997 173.18 213.109C172.953 213.333 172.621 213.656 172.194 214.065C171.339 214.882 170.1 216.038 168.55 217.412C165.454 220.155 161.098 223.78 156.067 227.295C151.046 230.803 145.287 234.248 139.388 236.581C133.515 238.903 127.291 240.209 121.438 239.162C115.552 238.109 111.908 235.312 109.626 231.483C107.627 228.128 106.797 224.13 106.096 220.753C106.048 220.522 106 220.294 105.953 220.069C105.164 216.301 104.437 213.356 102.842 211.178C101.403 209.213 98.9704 207.53 93.9343 207.198C92.4192 207.099 91.2667 205.706 91.36 204.088Z" fill="#FF1493"/>
<path fill-rule="evenodd" clip-rule="evenodd" d="M51.9735 185.102C53.2826 185.918 53.725 187.712 52.9634 189.111C52.9634 189.111 52.9634 189.111 52.9634 189.111C52.9631 189.112 52.9626 189.113 52.962 189.114L52.9448 189.146C52.9275 189.179 52.8985 189.235 52.8595 189.312C52.7816 189.467 52.6638 189.707 52.5188 190.024C52.2284 190.659 51.8316 191.594 51.4268 192.759C50.6114 195.105 49.7943 198.291 49.6972 201.773C49.6008 205.233 50.2145 208.928 52.203 212.425C54.1868 215.913 57.6667 219.43 63.6587 222.317C75.88 228.205 86.6581 227.816 93.8884 224.728C101.352 221.541 104.259 216.056 103.335 211.777C102.993 210.198 103.916 208.622 105.395 208.257C106.874 207.893 108.349 208.878 108.691 210.457C110.514 218.898 104.49 226.523 95.9295 230.179C87.1358 233.935 74.7977 234.124 61.3983 227.668C54.5798 224.383 50.1619 220.145 47.5047 215.472C44.8523 210.807 44.0821 205.935 44.2029 201.598C44.3232 197.284 45.3248 193.446 46.2737 190.716C46.751 189.343 47.2227 188.228 47.5803 187.446C47.7594 187.055 47.9105 186.746 48.0204 186.528C48.0754 186.419 48.1201 186.333 48.1529 186.27C48.1693 186.239 48.1828 186.214 48.1931 186.195L48.2061 186.171L48.2107 186.162L48.2126 186.159C48.2134 186.157 48.2141 186.156 50.5685 187.624L48.2141 186.156C48.9797 184.756 50.6628 184.284 51.9735 185.102Z" fill="#FF1493"/>
<path fill-rule="evenodd" clip-rule="evenodd" d="M221.785 166.621C220.42 165.911 219.981 164.233 220.805 162.871C223.784 157.944 226.695 152.64 227.768 147.095C228.812 141.696 228.128 135.982 223.657 130.097C221.787 127.636 220.274 125.149 218.904 122.771C218.482 122.038 218.078 121.325 217.683 120.627C216.772 119.018 215.909 117.492 214.969 115.993C212.341 111.799 209.377 108.256 204.379 105.658C201.356 104.087 196.295 103.271 190.481 103.33C184.743 103.389 178.698 104.295 173.95 105.824C172.188 106.391 169.836 107.295 167.877 108.079C166.908 108.467 166.054 108.818 165.442 109.072C165.136 109.199 164.892 109.302 164.724 109.372L164.533 109.453L164.485 109.473L164.47 109.479L164.422 109.5L164.373 109.519L164.166 109.599C164.033 109.65 163.845 109.723 163.621 109.811C163.172 109.986 162.586 110.215 162.027 110.438C161.556 110.625 161.127 110.799 160.82 110.928C160.537 111.112 160.219 111.254 159.875 111.341C159.816 111.355 159.703 111.383 159.568 111.406C159.502 111.417 159.377 111.436 159.221 111.445L159.214 111.445C159.121 111.451 158.699 111.475 158.209 111.329C157.945 111.25 157.407 111.047 156.955 110.526C156.423 109.913 156.248 109.13 156.367 108.403C156.467 107.791 156.748 107.359 156.889 107.165C157.048 106.947 157.204 106.793 157.295 106.71C157.576 106.45 157.857 106.294 157.895 106.273L157.898 106.271C158.134 106.136 158.427 106.01 158.564 105.951L158.572 105.948C158.966 105.778 159.544 105.544 160.113 105.318C160.691 105.088 161.293 104.852 161.749 104.674C161.977 104.585 162.169 104.511 162.305 104.458L162.473 104.393L162.497 104.383L162.7 104.297C162.875 104.224 163.128 104.118 163.444 103.987C164.074 103.725 164.954 103.364 165.953 102.964C167.93 102.172 170.452 101.199 172.434 100.561C177.869 98.8111 184.539 97.8341 190.782 97.7705C196.949 97.7076 203.135 98.5307 207.361 100.727C213.506 103.92 217.072 108.295 219.961 112.906C220.964 114.506 221.917 116.189 222.853 117.842C223.235 118.517 223.615 119.188 223.993 119.845C225.326 122.158 226.713 124.428 228.39 126.634C233.816 133.777 234.749 141.012 233.441 147.779C232.16 154.4 228.749 160.476 225.747 165.439C224.924 166.801 223.15 167.33 221.785 166.621Z" fill="#FF1493"/>
<path fill-rule="evenodd" clip-rule="evenodd" d="M99.7122 102.878C101.194 103.231 102.754 102.262 103.198 100.711C103.349 100.185 104.1 98.9078 105.89 97.0733C107.574 95.3471 109.886 93.4227 112.62 91.5892C118.125 87.8974 125.005 84.7964 131.486 84.2344C144.947 83.0671 161.892 86.1427 167.216 103.522C167.671 105.007 169.238 105.75 170.715 105.182C172.193 104.614 173.023 102.949 172.568 101.464C166.074 80.2682 145.456 77.2768 131.387 78.4968C123.634 79.1691 115.806 82.7911 109.786 86.8285C106.757 88.8596 104.102 91.0513 102.072 93.1326C100.147 95.1055 98.4361 97.3269 97.8338 99.4301C97.39 100.98 98.231 102.524 99.7122 102.878Z" fill="#FF1493"/>
<path fill-rule="evenodd" clip-rule="evenodd" d="M164.8 205.176C165.566 203.741 167.246 203.193 168.554 203.953C172.888 206.471 177.536 211.507 182.143 216.964C183.932 219.083 185.72 221.273 187.519 223.475C190.505 227.132 193.518 230.822 196.602 234.271C201.536 239.789 206.26 244.226 210.624 246.391C212.771 247.456 214.685 247.896 216.397 247.759C218.059 247.625 219.725 246.935 221.431 245.364C222.605 244.284 224.333 244.391 225.292 245.603C226.25 246.816 226.076 248.674 224.902 249.754C222.33 252.122 219.523 253.386 216.573 253.623C213.672 253.855 210.835 253.081 208.145 251.746C202.835 249.112 197.546 244.006 192.563 238.433C189.42 234.917 186.242 231.028 183.187 227.289C181.407 225.111 179.669 222.984 178.003 221.011C173.326 215.471 169.225 211.151 165.781 209.15C164.473 208.39 164.034 206.611 164.8 205.176Z" fill="#FF1493"/>
<path fill-rule="evenodd" clip-rule="evenodd" d="M223.752 161.205C224.346 159.713 225.96 159.017 227.357 159.651C232.603 162.032 236.675 167.494 239.127 173.24C241.578 178.986 242.714 185.724 241.372 191.143C240.6 194.259 238.48 197.003 236.472 199.266C235.558 200.297 234.581 201.319 233.652 202.29C233.527 202.421 233.402 202.551 233.279 202.68C232.222 203.787 231.241 204.828 230.383 205.847C229.842 206.489 229.266 207.788 228.408 210.011C228.335 210.2 228.261 210.393 228.185 210.591C227.453 212.495 226.572 214.791 225.417 216.886C224.13 219.22 222.366 221.579 219.776 223.064C217.141 224.575 213.971 225.001 210.215 224.093C210.992 225.802 212.014 227.754 213.481 230.004C215.179 232.61 217.845 235.665 220.312 238.493C220.85 239.109 221.378 239.714 221.885 240.302C223.204 241.831 224.496 243.376 225.207 244.557C225.395 244.869 225.604 245.254 225.76 245.677C225.891 246.031 226.137 246.799 225.978 247.72C225.767 248.942 224.968 249.815 224.017 250.184C223.285 250.468 222.598 250.409 222.223 250.356C220.718 250.142 219.66 248.666 219.861 247.06C219.873 246.963 219.889 246.868 219.909 246.774C219.413 246.129 218.719 245.296 217.842 244.279C217.396 243.762 216.911 243.207 216.403 242.626C213.939 239.805 210.917 236.346 208.969 233.358C206.63 229.77 205.275 226.811 204.302 224.387C203.937 223.476 203.651 222.719 203.405 222.066C202.946 220.849 202.625 219.996 202.182 219.199C202.162 219.161 202.141 219.125 202.122 219.089C202.03 218.925 201.951 218.783 201.895 218.679C201.864 218.621 201.815 218.53 201.77 218.436C201.75 218.396 201.702 218.295 201.653 218.166C201.629 218.105 201.582 217.975 201.539 217.806L201.537 217.798C201.512 217.701 201.389 217.217 201.475 216.606C201.524 216.251 201.678 215.612 202.188 215.031C202.751 214.389 203.461 214.141 204.044 214.106C204.901 214.056 205.513 214.457 205.596 214.511C205.599 214.513 205.601 214.515 205.603 214.516C205.888 214.697 206.086 214.902 206.11 214.927C206.111 214.928 206.112 214.929 206.112 214.929C206.209 215.028 206.293 215.128 206.319 215.159L206.322 215.162C206.356 215.202 206.394 215.249 206.426 215.287L206.438 215.303C206.477 215.349 206.516 215.396 206.558 215.447C206.935 215.896 207.432 216.425 207.893 216.71C208.935 217.352 210.596 218.162 211.363 218.351C214.088 219.024 215.886 218.631 217.176 217.892C218.531 217.114 219.658 215.761 220.68 213.909C221.624 212.195 222.358 210.289 223.114 208.325C223.184 208.141 223.255 207.957 223.326 207.773C224.075 205.834 224.992 203.469 226.296 201.921C227.283 200.749 228.377 199.592 229.431 198.489C229.557 198.356 229.683 198.224 229.808 198.093C230.745 197.113 231.644 196.174 232.482 195.229C234.45 193.01 235.672 191.199 236.058 189.642C236.965 185.981 236.263 180.685 234.125 175.675C231.987 170.664 228.717 166.647 225.207 165.054C223.81 164.42 223.159 162.697 223.752 161.205ZM202.223 219.074C202.223 219.074 202.226 219.077 202.232 219.084C202.227 219.078 202.224 219.075 202.223 219.074Z" fill="#FF1493"/>
<path d="M84.3049 184.341C87.8605 184.341 91.416 184.341 94.9715 184.341C100.303 184.341 105.405 186.559 110.684 187.445C121.768 189.307 132.471 191.546 143.407 186.587C154.71 181.461 165.536 171.342 174.461 158.055C179.66 150.314 184.525 141.685 190.154 135.004" stroke="#FF1493" stroke-width="4" stroke-linecap="round"/>
<path d="M186.653 21.8456L161.536 88.3625M134.67 1.00006L134.67 76.8081" stroke="#FF1493" stroke-width="4"/>
<path d="M85.8654 30.7787L111.899 88.3979" stroke="#FF1493" stroke-width="4"/>
<path d="M170.483 135.815C177.397 134.61 184.311 133.404 191.224 132.199C194.039 131.708 192.208 133.786 191.503 136.641C189.509 144.722 192.279 153.587 193.564 161.733" stroke="#FF1493" stroke-width="4" stroke-linecap="round"/>
</svg>
